<svg xmlns="http://www.w3.org/2000/svg" viewBox="0 8.859999656677246 200.22000122070312 37.040000915527344" data-asc="0.9052734375"><g fill="#ffffff"><g fill="#ffffff" transform="translate(0, 0)"><path d="M0 29.61L0 25.51L23.71 15.50L23.71 19.87L4.91 27.59L23.71 35.38L23.71 39.75L0 29.61ZM28.00 37.52L32.35 36.84Q32.71 39.45 34.39 40.84Q36.06 42.24 39.06 42.24Q42.09 42.24 43.55 41.00Q45.02 39.77 45.02 38.11Q45.02 36.62 43.73 35.77Q42.82 35.18 39.23 34.28Q34.40 33.06 32.53 32.17Q30.66 31.27 29.70 29.70Q28.74 28.13 28.74 26.22Q28.74 24.49 29.53 23.01Q30.32 21.53 31.69 20.56Q32.71 19.80 34.48 19.27Q36.25 18.75 38.28 18.75Q41.33 18.75 43.64 19.63Q45.95 20.51 47.05 22.01Q48.14 23.51 48.56 26.03L44.26 26.61Q43.97 24.61 42.57 23.49Q41.16 22.36 38.60 22.36Q35.57 22.36 34.28 23.36Q32.98 24.37 32.98 25.71Q32.98 26.56 33.52 27.25Q34.06 27.95 35.21 28.42Q35.86 28.66 39.09 29.54Q43.75 30.79 45.59 31.58Q47.44 32.37 48.49 33.89Q49.54 35.40 49.54 37.65Q49.54 39.84 48.25 41.78Q46.97 43.73 44.56 44.79Q42.14 45.85 39.09 45.85Q34.03 45.85 31.38 43.75Q28.74 41.65 28.00 37.52ZM53.56 35.82L57.96 35.23Q58.72 38.96 60.53 40.61Q62.35 42.26 64.97 42.26Q68.07 42.26 70.20 40.11Q72.34 37.96 72.34 34.79Q72.34 31.76 70.36 29.80Q68.38 27.83 65.33 27.83Q64.09 27.83 62.23 28.32L62.72 24.46Q63.16 24.51 63.43 24.51Q66.24 24.51 68.48 23.05Q70.73 21.58 70.73 18.53Q70.73 16.11 69.09 14.53Q67.46 12.94 64.87 12.94Q62.30 12.94 60.60 14.55Q58.89 16.16 58.40 19.38L54.00 18.60Q54.81 14.18 57.67 11.76Q60.52 9.33 64.77 9.33Q67.70 9.33 70.17 10.58Q72.63 11.84 73.94 14.01Q75.24 16.19 75.24 18.63Q75.24 20.95 74.00 22.85Q72.75 24.76 70.31 25.88Q73.49 26.61 75.24 28.92Q77.00 31.23 77.00 34.69Q77.00 39.38 73.58 42.64Q70.17 45.90 64.94 45.90Q60.23 45.90 57.12 43.09Q54.00 40.28 53.56 35.82ZM99.39 45.26L99.39 41.99Q96.92 45.85 92.14 45.85Q89.04 45.85 86.44 44.14Q83.84 42.43 82.41 39.37Q80.98 36.30 80.98 32.32Q80.98 28.44 82.28 25.28Q83.57 22.12 86.16 20.43Q88.75 18.75 91.94 18.75Q94.29 18.75 96.12 19.74Q97.95 20.73 99.10 22.31L99.10 9.47L103.47 9.47L103.47 45.26L99.39 45.26M85.50 32.32Q85.50 37.30 87.60 39.77Q89.70 42.24 92.55 42.24Q95.43 42.24 97.45 39.88Q99.46 37.52 99.46 32.69Q99.46 27.37 97.41 24.88Q95.36 22.39 92.36 22.39Q89.43 22.39 87.46 24.78Q85.50 27.17 85.50 32.32ZM128.13 36.91L132.67 37.48Q131.59 41.46 128.69 43.65Q125.78 45.85 121.26 45.85Q115.58 45.85 112.24 42.35Q108.91 38.84 108.91 32.52Q108.91 25.98 112.28 22.36Q115.65 18.75 121.02 18.75Q126.22 18.75 129.52 22.29Q132.81 25.83 132.81 32.25Q132.81 32.64 132.79 33.42L113.45 33.42Q113.70 37.70 115.87 39.97Q118.04 42.24 121.29 42.24Q123.71 42.24 125.42 40.97Q127.12 39.70 128.13 36.91M113.70 29.81L128.17 29.81Q127.88 26.54 126.51 24.90Q124.41 22.36 121.07 22.36Q118.04 22.36 115.98 24.39Q113.92 26.42 113.70 29.81ZM145.39 45.26L135.52 19.34L140.16 19.34L145.73 34.86Q146.63 37.38 147.39 40.09Q147.97 38.04 149.02 35.16L154.79 19.34L159.30 19.34L149.49 45.26L145.39 45.26ZM159.89 45.87L170.26 8.86L173.78 8.86L163.43 45.87L159.89 45.87ZM200.22 29.61L176.51 39.75L176.51 35.38L195.29 27.59L176.51 19.87L176.51 15.50L200.22 25.51L200.22 29.61Z"/></g></g></svg>